<?xml version="1.0" standalone="no"?>
<!DOCTYPE svg PUBLIC "-//W3C//DTD SVG 20010904//EN"
 "http://www.w3.org/TR/2001/REC-SVG-20010904/DTD/svg10.dtd">
<svg version="1.0" xmlns="http://www.w3.org/2000/svg"
 width="512.000000pt" height="407.000000pt" viewBox="0 0 512.000000 407.000000"
 preserveAspectRatio="xMidYMid meet">
<metadata>
Created by potrace 1.16, written by Peter Selinger 2001-2019
</metadata>
<g transform="translate(0.000000,407.000000) scale(0.100000,-0.100000)"
fill="#000000" stroke="none">
<path d="M3968 3887 c-26 -10 -28 -15 -28 -64 0 -39 -4 -53 -14 -53 -8 0 -16
-5 -18 -10 -2 -6 -20 3 -40 20 l-37 31 -58 -32 c-32 -18 -89 -50 -128 -72 -38
-22 -110 -62 -160 -90 -49 -27 -92 -51 -94 -53 -2 -2 4 -12 13 -23 17 -18 16
-19 -3 -26 -12 -3 -21 -15 -21 -25 0 -10 -4 -21 -9 -24 -4 -3 -11 -23 -15 -45
-3 -22 -11 -43 -16 -46 -15 -9 -40 14 -40 36 0 11 -4 19 -10 19 -20 0 -9 30
19 51 16 12 31 30 34 40 4 15 -3 14 -47 -12 -28 -17 -69 -39 -92 -51 l-41 -20
39 -40 c21 -22 35 -44 32 -50 -4 -6 -13 0 -21 16 -16 30 -21 31 -49 11 -14 -9
-23 -30 -27 -56 -7 -56 -21 -68 -39 -32 -8 15 -20 27 -27 25 -14 -3 -9 8 25
55 13 17 24 34 24 37 0 3 -41 -19 -91 -47 -59 -34 -84 -53 -73 -56 19 -4 54
-43 67 -75 7 -19 7 -19 -11 -3 -10 9 -22 14 -27 10 -4 -5 -4 2 -1 14 6 17 3
20 -11 17 -17 -5 -47 -53 -49 -79 -4 -40 -17 -62 -37 -61 -17 1 -22 8 -23 27
-1 15 -4 33 -7 41 -3 8 5 26 17 39 50 55 34 57 -54 6 -76 -43 -86 -52 -74 -64
15 -15 19 -44 7 -42 -20 3 -34 -2 -28 -11 3 -5 2 -10 -3 -10 -11 0 -27 -65
-23 -92 1 -10 -4 -18 -11 -18 -20 0 -41 17 -35 27 4 6 2 24 -2 41 -7 25 -6 34
10 48 10 9 19 23 19 30 0 7 -33 -7 -80 -34 -70 -41 -100 -72 -70 -72 6 0 10
-12 10 -27 0 -19 3 -24 9 -15 14 22 35 -15 36 -64 1 -35 -2 -44 -15 -41 -8 2
-14 9 -12 16 1 7 -4 24 -13 37 -8 13 -16 35 -17 48 -1 14 -6 22 -10 20 -17
-11 -40 -68 -40 -100 0 -46 -12 -43 -37 9 -12 23 -21 36 -21 28 0 -8 -3 -12
-6 -8 -3 3 6 22 21 42 15 19 26 37 24 40 -3 2 -41 -17 -86 -43 l-82 -47 40
-44 c37 -39 40 -48 36 -85 -3 -22 -1 -46 5 -53 7 -9 2 -9 -21 0 -17 6 -31 15
-31 20 0 5 6 7 14 4 10 -4 12 0 8 15 -2 11 -10 22 -16 24 -7 3 -10 19 -8 40 4
34 4 35 -17 22 -19 -11 -44 -70 -46 -105 -1 -25 -14 -24 -28 4 -24 46 -24 69
2 97 14 14 23 28 20 30 -2 2 -51 -23 -109 -56 -58 -33 -96 -57 -86 -54 21 7
56 -18 56 -41 0 -7 5 -13 11 -13 5 0 8 -4 5 -9 -3 -5 0 -14 8 -20 8 -6 13 -26
11 -44 -2 -25 -8 -34 -31 -42 -16 -5 -34 -13 -40 -17 -6 -4 -26 -1 -43 8 -25
12 -32 24 -37 56 -5 27 -10 35 -15 26 -5 -7 -9 -9 -9 -3 0 5 14 24 32 42 17
18 29 35 26 38 -3 4 -50 -19 -104 -49 -55 -31 -92 -56 -84 -56 9 0 32 -17 51
-38 29 -32 35 -46 34 -78 -1 -30 -7 -42 -26 -51 -18 -9 -25 -10 -28 -1 -2 7 1
14 8 16 15 5 14 41 -2 48 -9 3 -12 16 -9 34 4 30 -3 36 -24 22 -15 -9 -37 -90
-30 -108 3 -7 1 -16 -4 -19 -12 -8 -41 6 -34 16 3 5 -1 22 -9 38 -13 27 -13
31 10 60 14 18 23 34 21 37 -5 4 -173 -87 -186 -101 -4 -5 -2 -5 4 -2 6 3 27
-11 46 -31 31 -32 36 -43 34 -82 -1 -39 -4 -45 -24 -48 -15 -2 -22 2 -22 12 0
9 5 16 11 16 7 0 5 9 -4 24 -9 13 -13 33 -10 44 4 17 1 20 -17 15 -24 -6 -40
-39 -40 -84 0 -35 -13 -37 -34 -7 -22 31 -20 68 6 95 12 13 20 24 17 26 -3 3
-620 -345 -659 -372 -12 -8 -9 -9 11 -5 21 4 32 -2 57 -31 25 -27 30 -40 23
-53 -6 -11 -6 -24 0 -34 10 -17 2 -48 -11 -48 -5 0 -8 12 -7 27 1 20 -4 31
-21 38 -18 8 -21 15 -16 38 6 28 6 28 -23 14 -26 -14 -28 -19 -26 -66 3 -58
-5 -63 -33 -23 -23 30 -18 70 12 103 9 11 15 21 13 23 -2 2 -48 -21 -102 -52
-80 -46 -94 -58 -77 -64 10 -4 22 -19 26 -33 3 -14 9 -23 12 -20 7 6 42 -25
42 -38 0 -5 -7 -7 -15 -3 -9 3 -15 0 -15 -10 0 -8 4 -13 9 -9 23 14 21 -20 -3
-41 -14 -14 -27 -21 -27 -17 -1 4 -2 13 -4 18 -1 6 -3 17 -4 25 -1 12 -5 11
-17 -5 -15 -19 -15 -19 -26 -1 -8 15 -12 16 -19 5 -5 -8 -6 -21 -3 -31 6 -20
-14 -35 -21 -15 -3 7 -1 26 5 41 6 17 6 25 0 21 -6 -3 -10 -13 -10 -21 0 -8
-5 -12 -10 -9 -18 11 -10 61 15 95 14 18 23 35 21 37 -2 2 -59 -29 -127 -68
-68 -40 -205 -119 -304 -176 -99 -57 -183 -107 -188 -112 -4 -4 13 -28 39 -52
26 -24 60 -56 76 -72 16 -15 31 -27 34 -27 8 0 278 161 284 170 3 3 13 10 24
13 10 4 61 32 112 62 72 43 92 59 87 72 -5 13 -2 15 16 10 20 -5 95 34 239
125 30 18 92 24 92 8 0 -5 6 -10 14 -10 7 0 19 -6 26 -14 6 -8 18 -12 26 -9
10 4 14 1 12 -9 -2 -9 12 -36 30 -61 l32 -46 43 25 c46 26 57 29 57 14 0 -5
-14 -17 -31 -26 -22 -11 -28 -19 -21 -26 8 -8 22 -4 47 11 41 24 45 25 45 12
0 -6 -18 -20 -40 -32 -37 -21 -48 -45 -14 -32 8 3 21 -3 29 -13 8 -11 15 -14
15 -8 0 5 -5 15 -11 21 -8 8 -4 15 11 26 27 19 70 4 70 -25 0 -23 -19 -23 -37
0 -12 15 -13 14 -7 -10 5 -23 2 -30 -17 -37 -14 -6 -17 -10 -9 -10 9 -1 26 6
38 15 12 8 35 14 50 12 38 -4 42 -41 8 -64 -32 -20 -33 -31 -3 -40 12 -4 39
-20 61 -37 32 -26 36 -32 23 -42 -21 -15 3 -48 34 -43 32 4 35 -20 4 -32 -31
-12 -85 -43 -275 -160 -186 -114 -181 -111 -247 -149 -32 -18 -106 -63 -165
-99 l-106 -67 -4 -49 c-2 -29 2 -56 10 -67 8 -12 9 -19 3 -19 -6 0 -11 -4 -11
-8 0 -4 10 -8 23 -7 23 0 76 -45 271 -227 39 -36 73 -65 75 -62 2 2 -25 33
-60 69 -67 69 -96 113 -37 58 35 -34 58 -42 58 -20 0 6 10 0 21 -15 11 -16 26
-28 32 -28 7 0 35 -23 62 -50 96 -96 86 -93 140 -50 21 17 43 30 49 30 6 0 29
12 50 26 21 14 43 27 49 28 7 1 17 4 22 8 6 3 33 18 60 33 28 15 55 33 60 40
6 6 21 16 34 20 14 4 52 25 85 46 104 66 176 109 311 187 72 41 150 89 175
107 25 17 53 35 63 38 9 4 48 26 85 51 37 24 90 54 117 67 28 12 64 33 81 46
17 13 36 23 42 23 7 0 12 5 12 11 0 5 5 7 10 4 6 -3 10 -2 10 4 0 5 28 27 63
47 34 20 64 40 67 44 3 4 24 13 48 19 23 7 48 21 55 31 6 11 16 20 21 20 5 0
18 7 28 17 14 13 18 13 18 2 1 -9 7 -6 20 9 10 12 34 28 52 34 18 6 44 22 58
35 14 13 32 23 40 23 8 0 35 18 59 40 24 21 56 42 72 45 16 4 33 14 39 23 5 9
10 14 10 9 0 -12 73 21 90 41 25 29 110 74 130 69 11 -3 21 1 24 9 3 8 12 14
21 14 8 0 15 4 15 8 0 5 11 15 25 22 18 10 22 16 13 22 -10 5 -8 8 5 8 9 0 17
5 17 10 0 6 6 10 13 10 6 0 31 14 55 30 24 16 49 27 56 24 8 -3 22 5 33 18 23
28 70 57 57 36 -4 -7 5 -1 20 14 15 15 40 29 55 33 15 3 39 17 53 30 14 13 28
22 31 19 9 -9 57 16 57 31 0 8 5 15 11 15 6 0 17 7 26 15 8 8 19 13 24 9 5 -3
25 8 45 25 19 17 43 31 54 31 10 0 22 5 26 12 5 7 3 8 -6 3 -9 -6 -11 -4 -6 4
5 7 14 10 21 7 8 -3 19 2 25 10 7 8 9 14 4 14 -11 0 128 79 139 80 5 0 5 -5 1
-12 -4 -6 9 1 29 16 20 16 37 32 37 36 0 10 50 31 59 26 4 -3 24 10 44 29 20
19 43 32 51 29 7 -3 22 6 33 20 18 22 133 86 156 86 5 0 18 11 28 24 11 14 28
28 39 31 11 3 58 32 105 64 l85 58 -126 104 c-70 57 -149 123 -176 146 l-50
41 -66 -38 c-37 -21 -110 -63 -161 -94 -52 -31 -99 -56 -104 -56 -17 0 65 55
150 100 45 24 94 53 109 65 23 18 25 24 15 42 -12 24 -14 147 -2 178 6 15 -4
29 -52 71 -58 51 -61 52 -71 32 -6 -12 -19 -22 -28 -24 -17 -2 -18 11 -18 166
0 135 -3 170 -15 180 -19 16 -24 -8 -28 -123 l-2 -88 -35 30 c-40 34 -50 37
-50 16 0 -8 -5 -15 -11 -15 -6 0 -9 6 -6 13 3 8 1 20 -3 27 -5 8 -11 -24 -15
-78 -4 -50 -11 -89 -15 -87 -5 3 -16 -2 -24 -11 -15 -14 -16 -6 -16 94 0 101
-2 111 -21 124 -18 12 -20 17 -10 35 9 19 7 24 -18 42 -35 25 -41 26 -41 4 0
-24 -17 -4 -23 27 -3 16 -5 11 -6 -16 -1 -32 -5 -43 -20 -47 -26 -6 -31 0 -31
40 0 21 -8 42 -21 56 l-21 22 5 -35 c3 -19 9 -47 12 -62 5 -18 3 -28 -4 -28
-6 0 -11 7 -11 15 0 18 -12 19 -27 4 -9 -9 -19 -6 -42 12 l-31 24 3 113 c1 61
2 112 2 111 0 -1 -12 -6 -27 -12z m-338 -252 c7 -8 9 -15 4 -15 -4 0 15 -16
44 -36 43 -30 50 -39 40 -51 -6 -8 -20 -12 -30 -10 -10 3 -21 1 -24 -5 -9 -14
-33 24 -34 54 0 34 -16 44 -39 24 -10 -9 -20 -14 -23 -11 -3 3 -3 -7 0 -22 3
-15 10 -31 16 -35 8 -5 7 -8 -1 -8 -23 0 -14 -18 13 -27 25 -8 26 -10 10 -26
-10 -9 -20 -17 -24 -17 -10 0 -47 59 -44 71 1 5 -3 8 -10 7 -7 -2 -13 3 -14
10 -3 25 -6 27 -12 9 -7 -16 -9 -16 -27 -2 -17 13 -18 16 -5 24 8 5 37 26 65
45 55 39 76 44 95 21z m-692 -638 c10 -7 23 -7 48 2 38 14 41 13 101 -42 l32
-30 -32 -21 c-31 -20 -82 -46 -93 -46 -3 0 -2 5 1 11 4 6 -2 5 -13 -2 -11 -7
-18 -19 -15 -26 3 -7 0 -13 -6 -13 -6 0 -11 5 -11 10 0 7 -7 7 -20 0 -11 -6
-18 -15 -15 -20 3 -5 -22 -25 -56 -45 -56 -33 -63 -34 -79 -20 -24 22 -36 18
-15 -5 33 -36 7 -33 -36 4 -47 40 -57 42 -85 21 -25 -19 -38 -19 -30 1 3 8 2
12 -4 9 -12 -8 -59 26 -60 42 0 14 34 35 43 27 3 -3 17 7 31 21 l26 26 31 -21
c28 -21 29 -24 14 -40 -16 -18 -13 -24 25 -45 11 -6 10 -3 -2 12 -24 26 -23
29 11 43 40 16 71 54 64 79 -3 12 -12 21 -19 21 -22 0 -16 14 10 26 18 8 28 8
35 1 8 -8 11 -6 11 6 0 35 71 44 108 14z m148 -139 c-25 -14 -9 -28 23 -22 16
4 32 1 35 -5 5 -8 16 -6 37 5 28 14 32 14 48 0 10 -9 22 -16 27 -16 11 0 58
-59 52 -65 -13 -11 -98 -51 -118 -55 -14 -3 -25 -12 -25 -20 0 -9 -8 -14 -20
-12 -10 2 -24 -4 -31 -13 -7 -9 -38 -32 -70 -51 -51 -31 -59 -33 -74 -19 -9 8
-21 15 -26 15 -4 0 2 -7 14 -16 21 -15 30 -34 15 -34 -13 1 -107 89 -101 95 3
3 17 -5 33 -17 l28 -21 -12 21 c-6 12 -16 22 -21 22 -22 0 -7 17 45 49 35 22
51 38 43 42 -9 6 -9 11 0 22 10 11 9 17 -3 27 -8 7 -15 16 -15 20 0 12 46 28
59 20 9 -5 6 -9 -9 -13 -12 -3 -19 -10 -15 -16 8 -14 16 -13 39 4 16 12 17 17
6 30 -7 8 -11 17 -9 19 16 13 45 23 53 19 5 -3 1 -10 -8 -15z m1590 -52 c28
-20 84 -136 84 -175 0 -37 -16 -40 -32 -6 -6 14 -15 25 -20 25 -4 0 -8 17 -9
38 0 31 -2 33 -9 16 -5 -12 -13 -25 -19 -29 -6 -3 -9 -11 -6 -16 4 -5 2 -9 -4
-9 -5 0 -12 -14 -16 -31 -9 -38 -29 -32 -33 10 -2 22 0 31 7 26 6 -3 8 -12 4
-18 -4 -7 1 -5 11 3 16 13 17 16 3 24 -14 9 -13 13 5 39 l21 29 -22 -11 c-17
-10 -22 -9 -27 4 -4 9 -18 22 -33 30 -23 12 -24 14 -8 20 12 5 26 0 42 -15 14
-13 27 -21 30 -18 3 2 -4 13 -15 23 -28 25 -25 38 8 31 15 -3 21 -3 15 0 -14
6 -18 24 -5 24 4 0 17 -6 28 -14z m-536 -19 c128 -53 135 -58 108 -85 -19 -19
-53 -14 -123 18 -35 16 -72 27 -80 24 -22 -9 -47 -61 -40 -83 7 -23 54 -46 68
-32 7 7 1 12 -16 16 -39 10 -51 29 -32 49 22 21 54 20 111 -5 78 -33 78 -34
33 -100 -47 -69 -58 -72 -151 -32 -126 53 -160 100 -119 167 26 41 64 67 111
77 58 11 72 10 130 -14z m352 -104 c19 -17 24 -43 8 -43 -10 0 3 -30 27 -60 6
-8 12 -17 12 -20 0 -3 3 -13 6 -23 10 -24 -3 -69 -18 -64 -7 2 -13 13 -15 25
-2 12 -8 22 -13 22 -5 0 -9 9 -9 20 0 31 -50 6 -58 -30 -5 -20 -33 -51 -42
-45 -3 2 -5 23 -4 47 2 24 3 48 3 54 1 7 9 11 18 10 12 0 19 7 21 22 2 12 -1
22 -6 22 -6 0 -8 -10 -4 -22 5 -22 5 -23 -15 -5 -19 17 -21 17 -19 2 2 -29
-30 -42 -61 -25 -37 21 -39 38 -7 52 22 10 28 10 32 0 2 -6 9 -12 15 -12 8 0
7 4 -1 12 -19 19 -14 31 12 26 17 -4 23 -1 19 9 -6 16 9 17 27 1 12 -11 12
-10 1 4 -10 14 -9 18 6 27 26 15 44 13 65 -6z m-2244 -66 c12 -13 19 -27 15
-32 -5 -4 -3 -5 4 -1 6 3 14 2 18 -3 3 -6 -9 -18 -27 -28 l-33 -17 79 -8 c49
-4 85 -13 96 -23 10 -9 28 -17 40 -18 21 -1 22 -5 17 -58 -4 -30 -9 -63 -13
-72 -10 -27 -25 -19 -18 9 5 19 4 25 -5 20 -21 -13 -32 4 -16 27 17 24 20 67
5 67 -5 0 -10 -8 -10 -18 0 -16 -8 -17 -142 -5 -79 7 -148 10 -155 8 -17 -6
-4 57 14 68 11 7 11 12 2 23 -16 20 -4 44 23 44 13 0 29 9 36 20 16 27 44 25
70 -3z m1181 9 c28 17 31 17 49 1 10 -9 21 -15 24 -12 3 3 17 -10 31 -29 l26
-34 -38 -26 c-21 -15 -52 -28 -69 -31 -42 -5 -52 -12 -45 -33 6 -14 4 -15 -8
-5 -13 10 -19 10 -35 -2 -10 -8 -15 -15 -10 -15 14 0 -45 -44 -84 -61 l-35
-16 -47 39 c-27 22 -48 44 -48 49 0 5 13 15 30 24 38 20 80 65 80 87 0 9 22
29 52 46 48 28 53 29 74 15 21 -13 26 -13 53 3z m-536 -67 c53 -35 64 -39 85
-29 42 19 69 -19 35 -47 -16 -13 -15 -13 6 -3 18 9 29 9 47 -1 13 -7 24 -16
24 -21 0 -5 -9 -4 -19 2 -24 12 -34 13 -27 1 4 -5 1 -11 -5 -13 -5 -2 1 -14
14 -27 22 -20 25 -20 24 -5 -2 22 28 30 49 13 14 -11 13 -15 -8 -32 -20 -16
-20 -18 -3 -12 44 16 52 15 69 -4 15 -17 16 -21 5 -21 -8 0 -20 5 -27 12 -9 9
-12 9 -12 0 0 -7 -7 -12 -16 -12 -12 0 -14 -3 -6 -12 7 -9 5 -19 -8 -35 -9
-12 -20 -20 -23 -17 -2 3 -7 -11 -9 -32 -4 -32 -1 -39 29 -58 38 -24 38 -36 0
-54 -15 -7 -27 -18 -27 -24 0 -6 -12 -8 -29 -5 -24 5 -31 2 -36 -12 -7 -22
-29 -33 -50 -25 -26 10 -17 24 16 24 18 0 28 4 24 10 -4 6 -10 8 -14 6 -13 -9
-53 25 -47 40 4 11 1 12 -13 4 -11 -5 -22 -15 -24 -22 -3 -7 -6 -1 -6 13 -1
22 -5 26 -25 22 -17 -4 -27 1 -35 16 -13 24 -4 74 12 64 6 -3 7 -1 3 5 -4 7
-15 12 -24 12 -10 0 -35 14 -56 32 -22 18 -49 32 -60 33 -14 0 -21 7 -21 18 0
11 -11 28 -25 39 l-25 20 -5 -22 c-6 -26 -19 -24 -43 6 -17 22 -17 24 3 44 11
11 18 25 15 30 -3 5 7 12 22 15 40 8 124 54 151 81 13 13 25 24 29 24 3 0 33
-18 66 -41z m1352 1 c-3 -5 3 -15 12 -22 10 -7 18 -17 19 -23 1 -18 34 -85 42
-85 15 0 13 -67 -3 -80 -10 -9 -15 -9 -16 -1 -1 6 -3 16 -4 21 -1 6 -3 16 -4
23 -1 8 -4 8 -12 -3 -8 -12 -10 -9 -6 13 3 22 1 27 -18 27 -17 0 -24 -9 -35
-50 -14 -50 -25 -58 -43 -28 -8 11 -3 29 16 67 32 60 36 80 6 32 -11 -18 -23
-30 -26 -27 -4 4 -2 11 5 18 8 8 4 18 -19 37 -30 26 -30 27 -11 44 18 16 21
16 35 2 9 -8 28 -15 43 -15 22 0 25 2 14 15 -7 8 -22 15 -34 15 -21 1 -21 1 3
20 22 19 48 19 36 0z m-508 -149 c19 -7 39 -26 48 -43 8 -17 14 -32 13 -33 -2
0 -16 -10 -33 -20 -50 -33 -89 -47 -93 -35 -3 8 -8 7 -18 -1 -12 -10 -12 -14
-2 -20 7 -4 9 -11 5 -15 -3 -4 -12 -2 -20 4 -15 12 -42 0 -42 -20 0 -6 -26
-27 -57 -46 l-58 -34 -50 42 c-27 23 -50 45 -50 49 0 4 12 13 26 19 14 7 22
17 19 22 -3 6 -1 10 4 10 18 0 51 33 51 51 0 32 92 88 114 70 7 -6 15 -9 18
-6 2 3 19 7 37 9 17 2 35 6 38 10 4 4 9 5 12 3 3 -2 20 -9 38 -16z m243 -16
c7 -9 21 -13 34 -9 15 3 30 -5 55 -31 28 -30 34 -43 35 -88 1 -43 -2 -52 -18
-55 -11 -2 -16 0 -12 7 4 6 2 19 -3 28 -6 10 -11 14 -11 8 0 -5 -4 -3 -9 4 -6
9 -6 22 -1 31 6 12 4 16 -11 17 -11 1 -22 -6 -25 -15 -3 -9 -10 -25 -15 -34
-5 -10 -9 -25 -9 -34 0 -8 -6 -14 -12 -11 -8 2 -13 21 -13 44 0 23 -3 39 -7
36 -14 -8 -8 10 9 29 15 17 15 18 -3 18 -23 1 -54 23 -54 39 0 16 15 14 30 -4
7 -8 19 -15 28 -15 13 0 13 2 -1 18 -10 10 -17 22 -17 25 0 12 17 7 30 -8z
m-127 -186 c13 -28 28 -51 33 -52 21 -4 10 -77 -12 -77 -8 0 -14 7 -14 15 0 8
-4 15 -9 15 -5 0 -12 7 -15 16 -3 8 -2 12 4 9 6 -3 7 1 4 9 -3 9 -16 16 -29
16 -18 0 -25 -9 -35 -45 -11 -39 -15 -43 -31 -34 -21 11 -26 31 -6 23 8 -3 14
2 14 10 0 8 -6 12 -14 9 -20 -8 -16 31 7 60 11 14 20 32 20 40 0 12 31 34 52
36 3 1 17 -22 31 -50z m-306 -81 c15 -6 37 -10 48 -9 17 1 51 -38 60 -69 1 -3
5 -12 9 -22 4 -9 6 -29 4 -44 -4 -33 -28 -46 -28 -15 0 14 -6 21 -20 21 -18 0
-19 3 -8 20 9 13 9 23 2 30 -12 12 -58 -26 -49 -41 4 -5 1 -9 -4 -9 -6 0 -11
-12 -11 -26 0 -21 -3 -24 -14 -15 -22 19 -9 100 14 86 11 -7 23 32 14 46 -5 8
-9 8 -14 -1 -12 -20 -50 6 -50 35 0 28 7 30 47 13z m-241 -117 c-4 -5 11 -12
31 -16 21 -3 45 -12 53 -18 24 -19 62 -102 58 -127 -4 -33 -26 -36 -34 -6 -3
14 -12 26 -19 26 -8 0 -11 7 -8 18 3 13 -2 18 -16 18 -21 0 -41 -38 -41 -77 0
-11 -4 -19 -9 -19 -17 0 -22 19 -12 38 7 13 7 22 0 29 -6 6 -4 15 7 24 12 9
15 10 10 2 -4 -7 -2 -13 3 -13 6 0 11 3 11 8 0 4 3 18 7 30 5 19 2 23 -13 22
-41 -5 -49 1 -24 15 16 9 19 14 10 15 -9 0 -21 -5 -28 -12 -8 -8 -15 -8 -28 3
-15 12 -14 15 6 31 23 19 45 24 36 9z m-211 -151 c14 -15 21 -17 38 -9 16 9
22 8 30 -7 6 -10 21 -28 35 -41 14 -13 22 -26 19 -30 -4 -3 -2 -12 4 -19 16
-19 3 -61 -20 -67 -14 -3 -18 -1 -14 9 9 23 -17 74 -37 74 -12 0 -24 -15 -36
-45 -9 -25 -23 -45 -30 -45 -15 0 -18 12 -6 24 11 11 10 86 -1 79 -6 -3 -7 -1
-3 5 4 6 13 9 20 6 20 -8 30 14 16 31 -8 9 -21 13 -36 9 -19 -5 -24 -2 -24 13
0 37 18 42 45 13z m-215 -124 c6 -8 23 -16 38 -18 20 -2 33 -15 51 -48 14 -25
28 -46 31 -48 3 -1 4 -18 2 -37 -5 -41 -27 -47 -36 -10 -4 14 -11 23 -16 20
-5 -3 -10 6 -12 20 -3 24 -4 25 -25 10 -12 -9 -25 -31 -29 -50 -6 -35 -17 -44
-29 -24 -10 14 4 61 15 54 5 -3 9 7 8 22 -1 15 2 35 6 44 6 13 2 16 -18 12
-32 -6 -34 4 -3 17 17 7 18 9 5 9 -10 1 -18 6 -18 12 0 8 -5 7 -15 -1 -18 -15
-30 -7 -22 15 8 19 51 20 67 1z m-246 -122 c9 -3 16 -15 16 -25 0 -16 4 -17
25 -9 19 7 30 6 45 -7 11 -10 20 -23 20 -29 0 -7 5 -14 12 -16 12 -4 16 -19
22 -75 4 -40 -20 -46 -30 -9 -4 17 -11 23 -21 19 -12 -5 -14 -1 -8 15 5 18 2
22 -13 22 -14 0 -25 -13 -39 -45 -10 -25 -21 -45 -25 -45 -11 0 -10 18 1 38
11 20 3 74 -10 66 -5 -3 -9 0 -9 6 0 7 7 10 15 6 8 -3 15 -1 15 3 0 5 -7 11
-15 15 -11 4 -14 13 -9 31 7 29 -3 33 -21 8 -8 -10 -14 -12 -19 -5 -3 6 1 18
10 26 18 18 17 18 38 10z m-424 -289 c8 -7 20 -11 26 -8 10 3 79 -72 79 -87 0
-3 2 -4 5 -3 3 1 3 -18 2 -41 -4 -41 -6 -43 -35 -44 -25 -1 -28 1 -15 9 10 5
14 17 11 29 -3 11 -9 17 -13 15 -5 -3 -10 5 -12 19 -3 20 -6 22 -25 15 -16 -6
-24 -19 -29 -49 -7 -42 -14 -49 -33 -26 -9 10 -8 16 4 26 8 7 15 21 15 31 0
11 4 19 9 19 13 0 24 37 15 51 -4 8 -9 7 -15 -2 -6 -11 -13 -10 -35 1 -33 18
-40 35 -24 55 14 16 44 12 70 -10z m-517 -160 c20 -16 37 -32 37 -35 0 -3 -36
-27 -79 -52 l-79 -46 -26 27 c-18 19 -23 30 -16 41 12 18 13 33 2 26 -4 -2
-14 -1 -21 3 -17 11 -3 64 15 57 8 -3 14 -1 14 5 0 5 12 14 27 20 18 7 23 13
16 20 -6 6 -8 19 -6 29 4 16 11 12 42 -24 20 -23 53 -56 74 -71z m83 -87 c13
-13 24 -30 24 -38 0 -8 14 -35 30 -60 35 -53 37 -73 10 -100 -21 -21 -74 -27
-85 -10 -3 6 4 10 17 10 13 0 29 4 36 8 13 9 6 42 -9 42 -5 0 -7 11 -3 24 3
13 1 27 -6 31 -16 10 -39 -23 -46 -68 -4 -20 -11 -40 -15 -43 -9 -5 -14 12 -9
31 1 6 2 25 2 43 -1 22 3 32 13 32 18 0 20 21 3 38 -10 10 -8 14 10 18 12 4
22 10 22 15 0 5 -8 5 -17 2 -13 -5 -15 -2 -10 13 7 18 6 18 -7 2 -16 -22 -26
-23 -26 -3 0 11 24 33 39 35 2 0 14 -10 27 -22z m-616 -193 c0 -4 -6 -5 -12
-2 -7 2 -22 1 -33 -3 -15 -6 -9 -8 19 -8 28 0 46 -7 64 -25 l25 -26 -26 -12
c-15 -7 -27 -15 -27 -19 0 -4 -25 -20 -57 -34 l-56 -27 -26 25 c-22 22 -24 29
-14 45 10 16 9 20 -8 24 -22 6 -26 27 -5 27 8 0 17 11 20 25 6 24 43 42 76 37
10 -2 9 3 -6 15 -11 10 -19 24 -16 31 4 12 82 -57 82 -73z m383 54 c10 -11 16
-27 13 -35 -3 -7 4 -18 14 -24 27 -15 63 -87 56 -114 -9 -35 -85 -62 -101 -36
-3 6 3 10 13 10 11 0 23 7 26 16 3 8 10 12 16 9 16 -10 11 17 -7 37 -16 18
-16 18 1 12 16 -6 17 -5 5 14 -8 12 -17 18 -22 13 -13 -13 -47 -1 -47 16 0 12
-3 12 -22 -1 -29 -21 -46 -20 -44 2 1 11 -5 16 -16 14 -11 -2 -18 3 -18 12 0
24 16 27 41 7 22 -18 64 -18 53 0 -3 5 2 9 10 9 8 0 18 4 21 10 4 6 -1 7 -11
3 -13 -5 -16 -3 -11 10 7 20 -4 22 -21 5 -6 -6 -15 -9 -19 -5 -7 8 26 36 42
37 6 0 19 -9 28 -21z"/>
<path d="M2804 2522 c-19 -13 -64 -79 -64 -94 0 -27 40 -67 80 -79 49 -15 102
-5 140 27 42 36 39 67 -9 115 -34 35 -44 39 -87 39 -27 0 -54 -4 -60 -8z"/>
<path d="M4800 2470 c-25 -16 -49 -30 -54 -30 -8 0 -86 -48 -149 -92 -15 -11
-67 -40 -114 -64 -47 -25 -95 -52 -107 -60 -37 -26 -89 -58 -166 -103 -41 -24
-87 -52 -102 -62 -15 -11 -32 -19 -37 -19 -6 0 -36 -16 -68 -35 -32 -19 -66
-35 -76 -35 -10 0 -15 -4 -12 -10 3 -5 -1 -10 -9 -10 -8 0 -21 -6 -28 -13 -7
-7 -29 -22 -48 -33 -19 -10 -37 -22 -40 -25 -3 -4 -21 -15 -40 -25 -19 -11
-49 -29 -67 -42 -17 -12 -38 -19 -46 -16 -8 3 -18 1 -22 -5 -3 -7 0 -8 9 -5 9
3 16 3 16 0 0 -9 -52 -30 -67 -27 -7 1 -13 -3 -13 -9 0 -6 -10 -15 -22 -20
-13 -6 -52 -28 -88 -50 -36 -22 -76 -44 -90 -50 -14 -6 -33 -21 -43 -33 -10
-12 -15 -15 -11 -8 5 9 -5 6 -23 -7 -17 -12 -35 -22 -40 -22 -5 0 -23 -13 -40
-29 -24 -21 -34 -26 -44 -17 -9 8 -10 8 -5 -1 4 -7 -2 -17 -13 -22 -11 -6 -26
-17 -33 -25 -8 -8 -37 -26 -64 -40 -27 -15 -64 -36 -83 -47 -18 -11 -35 -18
-38 -15 -3 2 -12 -2 -21 -11 -35 -31 -155 -113 -167 -113 -6 0 -56 -29 -110
-64 -54 -36 -103 -62 -107 -60 -5 3 -17 -3 -26 -13 -21 -23 -72 -47 -94 -44
-9 1 -19 -3 -23 -8 -4 -7 1 -8 12 -4 16 6 16 5 5 -10 -8 -9 -24 -19 -35 -23
-12 -4 -42 -22 -66 -40 -42 -33 -78 -47 -53 -22 7 7 12 16 12 22 0 5 -6 1 -14
-9 -8 -11 -13 -22 -11 -26 5 -8 -199 -129 -234 -139 -37 -10 -73 -32 -88 -52
-7 -9 -30 -27 -50 -39 -21 -12 -60 -37 -88 -54 -105 -66 -223 -135 -231 -135
-10 0 -114 -72 -114 -79 0 -3 12 -15 26 -26 14 -11 43 -37 65 -58 l39 -38 72
38 c79 42 133 87 123 103 -3 5 3 10 14 10 11 0 25 -8 30 -18 8 -14 10 -14 11
-2 0 9 15 24 33 34 91 52 137 90 137 113 0 21 2 22 21 13 17 -9 31 -7 73 14
79 39 136 83 136 106 0 11 4 20 8 20 5 0 12 -66 16 -146 7 -164 14 -187 53
-179 15 2 30 10 35 17 11 18 -1 80 -20 98 -13 13 -14 13 -8 0 4 -8 0 -6 -8 4
-9 11 -16 38 -16 62 0 22 -3 62 -6 87 l-7 46 44 21 c77 36 142 89 136 111 -3
12 0 19 9 19 11 0 14 -19 15 -87 1 -131 13 -233 29 -243 14 -9 39 -3 55 14 8
9 11 55 6 110 -1 5 -8 3 -17 -5 -13 -10 -17 -10 -24 0 -8 13 -25 190 -18 195
2 2 32 20 68 41 86 50 100 64 100 92 0 13 4 22 8 19 5 -3 12 -76 16 -162 3
-90 11 -163 17 -171 17 -20 57 -16 69 7 6 12 8 40 4 69 -5 40 -9 48 -24 44
-22 -6 -30 31 -30 131 l0 71 57 30 c31 16 71 39 89 51 l32 22 6 -30 c3 -17 6
-79 6 -138 0 -94 2 -109 20 -125 17 -15 24 -16 46 -7 22 11 25 17 23 63 -2 42
-7 52 -24 59 -20 8 -23 18 -29 106 -6 73 -4 100 4 102 7 3 47 28 90 56 l78 52
6 -44 c3 -25 6 -86 6 -137 0 -76 3 -95 18 -108 25 -23 38 -21 56 5 26 36 18
112 -9 101 -17 -6 -22 14 -30 125 -6 74 -4 83 12 89 47 17 162 104 166 125 2
13 5 -50 6 -138 1 -142 3 -165 20 -185 18 -23 19 -23 46 -5 25 16 27 22 21 60
-4 22 -8 46 -8 52 -1 6 -10 9 -20 6 -16 -4 -18 2 -18 45 0 28 -3 78 -6 112 -5
47 -4 61 6 61 8 0 49 23 93 52 60 39 77 56 74 70 -3 10 -2 18 1 18 4 0 7 -69
7 -153 0 -116 3 -158 14 -170 31 -38 73 -5 69 54 -2 31 -7 39 -19 36 -21 -6
-29 36 -29 143 l1 75 87 52 87 51 5 -136 c3 -76 9 -143 13 -149 11 -18 42 -16
58 3 18 22 21 94 4 87 -24 -9 -35 34 -35 132 0 82 2 97 18 102 33 12 142 85
152 101 6 12 9 -34 10 -140 0 -145 2 -158 19 -168 26 -13 50 -3 56 24 7 31 1
54 -17 68 -13 10 -17 36 -20 128 -3 105 -1 115 16 118 10 2 48 23 85 47 l66
43 5 -144 c5 -151 12 -171 50 -159 18 6 20 9 9 16 -11 7 -11 11 3 21 12 9 16
21 12 35 -4 13 -10 21 -14 18 -15 -9 -19 27 -17 140 2 98 4 110 21 113 34 7
137 74 147 95 6 15 8 -29 5 -131 -3 -127 -1 -155 11 -168 31 -31 76 -2 51 32
-11 15 -28 160 -28 236 0 54 1 56 31 67 17 6 54 25 81 41 l49 31 -8 -83 c-13
-133 -10 -189 8 -201 28 -18 52 16 45 61 -7 48 -7 175 0 230 5 32 11 42 25 42
29 0 159 87 160 107 1 10 0 48 -1 85 -1 36 3 76 9 87 16 28 4 26 -49 -9z"/>
<path d="M1013 1813 c-18 -7 -16 -21 7 -45 30 -32 25 -42 -30 -68 -28 -13 -49
-27 -48 -31 5 -13 138 -129 149 -129 5 0 30 11 56 24 46 25 64 25 95 -1 18
-16 50 -14 54 2 1 6 -20 29 -46 53 l-47 42 -59 -35 c-66 -40 -67 -40 -88 -19
-26 25 -19 50 24 87 22 19 40 37 40 40 0 8 -78 81 -89 84 -3 1 -12 -1 -18 -4z"/>
<path d="M515 1625 c-95 -58 -140 -91 -140 -102 0 -13 7 -18 28 -16 24 2 27
-2 27 -28 0 -16 4 -29 9 -29 12 0 271 148 293 168 17 14 16 32 -1 32 -4 0 -48
-24 -97 -54 -86 -52 -168 -85 -180 -73 -11 11 8 28 68 58 129 65 205 130 151
129 -10 -1 -81 -39 -158 -85z"/>
<path d="M719 1542 c-212 -119 -231 -131 -224 -142 10 -17 32 -11 63 15 17 14
35 25 40 25 6 0 14 5 18 12 5 7 3 8 -6 3 -9 -5 -11 -4 -6 4 4 6 12 9 17 5 5
-3 26 4 45 15 21 13 53 21 79 21 36 0 47 5 64 28 36 48 40 50 60 45 10 -3 31
-17 46 -33 25 -26 26 -29 12 -56 -20 -39 -52 -66 -79 -69 -13 -1 -28 -3 -35
-4 -22 -2 -193 -122 -188 -132 4 -5 10 -9 14 -9 13 0 353 209 376 231 19 19
19 19 -20 51 -22 18 -50 43 -63 55 -13 13 -31 23 -40 22 -9 0 -87 -40 -173
-87z"/>
<path d="M230 1434 c0 -22 10 -59 21 -84 11 -24 23 -65 26 -90 5 -39 15 -54
77 -115 143 -142 317 -305 325 -305 5 0 8 14 7 31 -1 17 4 38 11 47 7 9 13 35
13 57 0 39 -5 45 -152 188 -84 81 -192 184 -240 229 l-88 80 0 -38z"/>
<path d="M965 1394 c-54 -28 -230 -135 -254 -155 l-24 -20 33 -34 c38 -39 51
-42 74 -19 9 8 16 13 16 9 0 -3 18 4 40 16 22 13 40 26 40 29 0 4 6 7 13 7 22
0 157 87 157 101 0 22 -31 13 -105 -32 -70 -43 -129 -66 -167 -66 -37 0 -15
21 64 61 105 53 158 88 158 105 0 18 -8 17 -45 -2z"/>
</g>
</svg>
