<?xml version="1.0" standalone="no"?>
<!DOCTYPE svg PUBLIC "-//W3C//DTD SVG 20010904//EN"
 "http://www.w3.org/TR/2001/REC-SVG-20010904/DTD/svg10.dtd">
<svg version="1.0" xmlns="http://www.w3.org/2000/svg"
 width="1074.000000pt" height="610.000000pt" viewBox="0 0 1074.000000 610.000000"
 preserveAspectRatio="xMidYMid meet">
<metadata>
Created by potrace 1.16, written by Peter Selinger 2001-2019
</metadata>
<g transform="translate(0.000000,610.000000) scale(0.100000,-0.100000)"
fill="#000000" stroke="none">
<path d="M0 3050 l0 -3050 5370 0 5370 0 0 3050 0 3050 -5370 0 -5370 0 0
-3050z m1035 2416 c140 -83 167 -279 53 -395 -54 -55 -104 -75 -183 -75 -80 0
-129 20 -181 76 -52 55 -68 95 -69 173 0 157 109 261 267 252 50 -3 78 -11
113 -31z m2305 -46 c45 -45 13 -130 -49 -130 -45 0 -75 30 -75 75 0 66 78 101
124 55z m-319 -887 c15 -18 16 -18 -32 2 -20 8 -50 -20 -43 -40 13 -32 64 -24
92 17 15 20 52 24 70 6 9 -9 15 -9 24 0 15 15 55 16 64 1 4 -8 9 -8 17 0 6 6
26 11 44 11 31 0 33 -2 33 -35 0 -33 -2 -35 -34 -35 -19 0 -38 5 -42 11 -4 8
-9 8 -17 0 -15 -15 -50 -14 -65 1 -9 9 -15 9 -24 0 -15 -15 -51 -15 -66 0 -9
9 -15 9 -24 0 -25 -25 -98 -2 -98 31 0 40 75 62 101 30z m1850 0 c15 -18 16
-18 -32 2 -20 8 -50 -20 -43 -40 13 -32 64 -24 92 17 15 20 52 24 70 6 9 -9
15 -9 24 0 15 15 55 16 64 1 4 -8 9 -8 17 0 15 15 77 14 77 -1 0 -9 3 -9 12 0
15 15 55 16 64 1 4 -8 9 -8 17 0 29 29 92 -4 70 -37 -12 -21 -49 -27 -68 -12
-9 7 -15 8 -20 0 -8 -14 -48 -13 -63 2 -9 9 -12 9 -12 0 0 -15 -66 -16 -76 -1
-4 8 -9 8 -17 0 -15 -15 -50 -14 -65 1 -9 9 -15 9 -24 0 -15 -15 -51 -15 -66
0 -9 9 -15 9 -24 0 -25 -25 -98 -2 -98 31 0 40 75 62 101 30z"/>
<path d="M871 5386 c-65 -36 -65 -126 0 -162 l24 -13 -23 -1 c-55 0 -132 -62
-132 -106 0 -15 16 -16 160 -12 87 2 162 7 167 11 23 24 -75 106 -127 107 -24
0 -24 1 7 20 90 54 16 208 -76 156z"/>
</g>
</svg>
