<?xml version="1.0" standalone="no"?>
<!DOCTYPE svg PUBLIC "-//W3C//DTD SVG 20010904//EN"
 "http://www.w3.org/TR/2001/REC-SVG-20010904/DTD/svg10.dtd">
<svg version="1.0" xmlns="http://www.w3.org/2000/svg"
 width="1428.000000pt" height="807.000000pt" viewBox="0 0 1428.000000 807.000000"
 preserveAspectRatio="xMidYMid meet">
<metadata>
Created by potrace 1.16, written by Peter Selinger 2001-2019
</metadata>
<g transform="translate(0.000000,807.000000) scale(0.100000,-0.100000)"
fill="#000000" stroke="none">
<path d="M482 7641 c-2 -362 -4 -432 -15 -417 -26 36 -84 -4 -61 -41 16 -25
45 -28 61 -7 11 15 13 -161 13 -1026 0 -865 -2 -1041 -13 -1026 -26 36 -84 -4
-61 -41 16 -25 45 -28 61 -7 11 15 13 -148 13 -956 0 -808 -2 -971 -13 -956
-16 21 -45 18 -61 -6 -23 -38 35 -78 61 -42 11 15 13 -251 15 -1552 l3 -1569
7 1550 c3 853 6 1567 6 1588 0 20 0 460 0 977 0 517 0 958 0 980 0 842 0 2070
1 2098 0 20 -3 228 -7 462 l-7 425 -3 -434z"/>
<path d="M13585 4035 c0 -2222 1 -3130 2 -2017 2 1113 2 2931 0 4040 -1 1109
-2 199 -2 -2023z"/>
<path d="M594 7178 c-50 -57 -51 -53 25 -88 48 -22 78 -43 93 -66 l23 -34 491
0 c437 0 493 -2 498 -16 4 -10 15 -14 33 -12 24 3 28 8 28 33 0 24 -5 31 -24
33 -13 2 -28 -1 -34 -7 -8 -8 -162 -11 -502 -11 l-490 1 -31 42 c-18 23 -44
66 -58 95 -15 28 -28 52 -29 52 -2 0 -12 -10 -23 -22z"/>
<path d="M2171 7142 c-13 -25 5 -52 35 -52 13 0 27 7 30 15 5 13 61 15 416 15
380 0 412 -1 424 -17 10 -14 13 -84 14 -315 l0 -298 -449 0 -449 0 -4 94 c-2
77 -7 100 -24 123 -28 38 -62 37 -89 -3 l-20 -30 -20 30 c-27 41 -62 41 -90 0
l-20 -30 -20 30 c-39 60 -98 26 -116 -65 -4 -24 -8 -133 -9 -241 l0 -198 330
0 330 0 0 -575 0 -575 -164 0 c-99 0 -167 4 -171 10 -3 6 -17 10 -30 10 -29 0
-47 -28 -34 -53 12 -21 58 -23 65 -2 5 12 34 15 170 15 l164 0 0 -320 0 -320
-190 0 -190 0 0 85 c0 104 -24 165 -65 165 -27 0 -65 -35 -65 -59 -1 -9 -10 1
-21 22 -14 27 -26 37 -44 37 -26 0 -65 -35 -65 -58 0 -8 -10 0 -23 19 -17 26
-30 34 -52 34 -25 0 -33 -7 -50 -40 -18 -36 -20 -64 -23 -262 l-4 -223 396 0
396 0 0 -65 0 -65 325 0 325 0 0 -450 0 -450 -489 0 c-316 0 -492 4 -496 10
-3 6 -17 10 -30 10 -29 0 -47 -28 -34 -53 12 -21 58 -23 65 -2 5 13 71 15 505
15 l499 0 0 460 0 460 450 0 450 0 0 -775 0 -775 -974 0 -974 0 -4 94 c-2 77
-7 100 -24 123 -28 38 -62 37 -89 -3 l-20 -30 -20 30 c-27 41 -63 41 -90 0
l-20 -30 -20 30 c-15 23 -29 31 -50 31 -25 0 -33 -7 -50 -40 -16 -33 -20 -67
-23 -203 l-4 -162 1846 0 1846 0 0 855 0 855 325 0 325 0 0 130 0 130 255 0
255 0 0 -55 0 -54 -62 -3 -63 -3 -3 -62 -3 -62 -67 -3 -67 -3 -3 -62 -3 -62
-62 -3 -62 -3 -3 -62 -3 -62 -62 -3 -62 -3 -3 -67 -3 -67 -62 -3 -62 -3 -3
-62 -3 -62 -62 -3 -62 -3 -3 -62 -3 -62 -62 -3 -62 -3 -3 -62 -3 -62 -62 -3
-62 -3 -3 -1052 -2 -1053 850 0 850 0 0 -70 0 -70 275 0 275 0 0 70 0 70 1021
0 c961 0 1023 -1 1035 -17 10 -14 13 -85 14 -320 l0 -303 -59 0 c-33 0 -63 -4
-66 -10 -4 -6 43 -10 135 -10 92 0 139 4 135 10 -3 6 -33 10 -66 10 l-59 0 0
304 c0 261 2 305 15 310 19 7 19 55 0 62 -20 8 -20 60 0 68 19 7 19 55 0 62
-20 8 -20 60 0 68 19 7 19 55 0 62 -20 8 -20 60 0 68 19 7 19 55 0 62 -20 8
-20 60 0 68 19 7 19 55 0 62 -8 4 -15 18 -15 34 0 16 7 30 15 34 8 3 15 17 15
31 0 14 -7 28 -15 31 -20 8 -20 60 0 68 19 7 19 55 0 62 -20 8 -20 60 0 68 19
7 19 55 0 62 -8 4 -15 18 -15 34 0 16 7 30 15 34 19 7 20 52 1 63 -9 5 -16 28
-18 58 l-3 50 -1042 3 -1042 2 -3 68 -3 67 -270 0 -270 0 -3 -67 -3 -68 -249
0 -250 0 0 450 0 450 185 0 185 0 0 -195 0 -195 1255 0 1255 0 0 65 0 65 131
0 c84 0 128 4 124 10 -4 6 -58 10 -131 10 l-124 0 0 55 0 55 131 0 c84 0 128
4 124 10 -4 6 -58 10 -131 10 l-124 0 0 55 0 55 131 0 c84 0 128 4 124 10 -4
6 -58 10 -131 10 l-124 0 0 120 0 120 131 0 c84 0 128 4 124 10 -4 6 -58 10
-131 10 l-124 0 0 55 0 55 131 0 c84 0 128 4 124 10 -4 6 -58 10 -131 10
l-124 0 0 60 0 60 131 0 c84 0 128 4 124 10 -4 6 -58 10 -131 10 l-124 0 0 55
0 55 185 0 185 0 0 -330 0 -330 404 0 c357 0 405 -2 410 -16 4 -10 15 -14 33
-12 21 2 29 9 31 28 2 20 26 38 122 95 66 39 120 74 120 79 0 13 -24 1 -140
-69 -60 -36 -119 -65 -133 -65 -14 0 -29 -4 -32 -10 -4 -6 -148 -10 -400 -10
l-395 0 -2 328 -3 327 -192 3 -193 2 0 55 0 55 250 0 250 0 0 -265 0 -265 339
0 c298 0 340 -2 345 -16 4 -10 15 -14 33 -12 21 2 29 9 31 28 2 20 26 38 122
95 66 39 120 74 120 79 0 13 -24 1 -140 -69 -60 -36 -119 -65 -133 -65 -14 0
-29 -4 -32 -10 -4 -6 -127 -10 -335 -10 l-330 0 -2 263 -3 262 -257 3 -258 2
0 55 0 55 315 0 315 0 0 -195 0 -195 274 0 c239 0 275 -2 280 -16 9 -23 60
-15 64 11 2 13 43 45 122 95 106 66 136 90 113 90 -3 0 -58 -32 -122 -72 -82
-52 -122 -72 -142 -70 -15 2 -30 -1 -34 -7 -4 -7 -94 -11 -270 -11 l-265 0 -2
193 -3 192 -322 3 -323 2 0 55 0 55 385 0 385 0 0 -130 0 -130 204 0 c176 0
205 -2 210 -16 9 -23 60 -15 64 11 2 13 43 45 122 95 106 66 136 90 113 90 -3
0 -58 -32 -122 -72 -82 -52 -122 -72 -142 -70 -15 2 -30 -1 -34 -7 -4 -7 -74
-11 -200 -11 l-194 0 -3 128 -3 127 -392 3 -393 2 0 55 0 55 450 0 450 0 0
-65 0 -65 139 0 c117 0 140 -2 145 -16 9 -23 60 -15 64 11 2 13 43 45 122 95
106 66 136 90 113 90 -3 0 -58 -32 -122 -72 -82 -52 -122 -72 -142 -70 -15 2
-30 -1 -34 -7 -4 -7 -55 -11 -135 -11 l-129 0 -3 63 -3 62 -457 3 -458 2 0
120 0 120 593 0 593 0 64 65 64 65 183 0 183 0 0 -163 c0 -151 -2 -165 -20
-182 -26 -23 -26 -57 0 -80 23 -20 26 -45 8 -63 -14 -14 -104 -16 -113 -2 -3
6 -17 10 -30 10 -29 0 -47 -28 -34 -53 12 -21 58 -23 65 -2 9 22 93 20 110 -2
19 -25 17 -47 -6 -68 -26 -23 -26 -57 0 -80 23 -20 26 -45 8 -63 -14 -14 -104
-16 -113 -2 -3 6 -17 10 -30 10 -29 0 -47 -28 -34 -53 12 -21 58 -23 65 -2 9
22 93 20 110 -2 19 -25 17 -47 -6 -68 -26 -23 -26 -57 0 -80 23 -20 26 -45 8
-63 -14 -14 -104 -16 -113 -2 -3 6 -17 10 -30 10 -29 0 -47 -28 -34 -53 12
-21 58 -23 65 -2 9 22 93 20 110 -2 19 -26 17 -57 -6 -78 -26 -23 -26 -57 0
-80 23 -20 26 -45 8 -63 -14 -14 -104 -16 -113 -2 -3 6 -17 10 -30 10 -29 0
-47 -28 -34 -53 12 -21 58 -23 65 -2 9 22 93 20 110 -2 19 -25 17 -47 -6 -68
-26 -23 -26 -57 0 -80 11 -10 20 -31 20 -47 0 -28 -1 -28 -59 -28 -33 0 -63 5
-66 10 -3 6 -17 10 -30 10 -29 0 -47 -28 -34 -53 12 -21 58 -23 65 -2 5 11 23
15 75 15 l69 0 0 36 c0 27 7 41 25 56 32 25 32 61 0 86 -28 22 -33 47 -10 56
8 3 15 17 15 31 0 14 -7 28 -15 31 -23 9 -18 34 10 56 14 11 25 30 25 43 0 13
-11 32 -25 43 -28 22 -33 57 -10 66 8 3 15 17 15 31 0 14 -7 28 -15 31 -23 9
-18 34 10 56 14 11 25 30 25 43 0 13 -11 32 -25 43 -28 22 -33 47 -10 56 8 3
15 17 15 31 0 14 -7 28 -15 31 -23 9 -18 34 10 56 32 25 32 61 0 86 -28 22
-33 47 -10 56 8 3 15 17 15 31 0 14 -7 28 -15 31 -23 9 -18 34 10 56 32 25 32
61 0 86 -25 20 -25 21 -25 181 l0 161 580 0 580 0 0 -55 0 -55 -124 0 c-73 0
-127 -4 -131 -10 -4 -6 40 -10 124 -10 l131 0 0 -55 0 -55 -124 0 c-73 0 -127
-4 -131 -10 -4 -6 40 -10 124 -10 l131 0 0 -55 0 -55 -124 0 c-73 0 -127 -4
-131 -10 -4 -6 40 -10 124 -10 l131 0 0 -260 0 -260 470 0 470 0 -2 858 -3
857 -465 0 -465 0 -3 -127 -3 -128 -124 0 c-72 0 -126 -4 -130 -10 -4 -6 40
-10 124 -10 l131 0 0 -55 0 -55 -124 0 c-73 0 -127 -4 -131 -10 -4 -6 40 -10
124 -10 l131 0 0 -55 0 -55 -111 0 c-101 0 -152 -8 -572 -95 -253 -52 -464
-95 -469 -95 -4 0 -9 336 -10 748 l-3 747 -2395 2 c-1821 2 -2400 6 -2417 15
-23 11 -23 15 -23 185 l0 173 30 0 c17 0 30 3 30 8 0 18 -56 132 -65 132 -9 0
-75 -116 -75 -133 0 -4 14 -7 30 -7 l30 0 0 -174 c0 -133 -3 -176 -13 -185
-10 -8 -201 -12 -653 -13 l-639 -3 -3 -262 -2 -262 -133 -3 -132 -3 -3 -467
-2 -468 135 0 135 0 0 -303 c0 -222 -3 -306 -12 -315 -9 -9 -94 -12 -320 -12
l-308 0 0 39 c0 25 5 41 15 45 8 3 15 17 15 31 0 14 -7 28 -15 31 -13 5 -15
57 -15 380 l0 374 25 0 25 0 -2 203 c-3 201 -3 202 -25 205 l-23 3 -2 782 -3
782 -635 3 c-403 1 -638 6 -644 12 -13 13 -53 13 -61 0 -4 -6 -155 -10 -420
-10 -265 0 -416 4 -420 10 -10 17 -54 11 -64 -8z m2229 -796 l0 -775 -22 -3
c-23 -3 -23 -4 -26 -205 l-2 -203 25 0 25 0 0 -373 c0 -277 -3 -376 -12 -385
-18 -18 -317 -16 -340 2 -17 12 -18 77 -20 1047 l-3 1034 -457 3 -458 2 0 295
c0 267 2 297 18 314 16 19 39 19 645 20 l627 1 0 -774z m-2507 339 c9 -20 17
-47 17 -61 0 -38 23 -24 32 20 11 52 26 76 46 76 21 0 52 -58 52 -96 0 -38 23
-24 32 20 18 83 52 101 81 41 12 -25 17 -62 17 -125 l0 -90 460 0 460 0 0
-698 c0 -530 -3 -701 -12 -710 -9 -9 -93 -12 -315 -12 l-303 0 -2 583 -3 582
-328 3 -329 2 4 213 c3 171 7 219 20 250 22 48 49 49 71 2z m2117 -1243 c0
-786 -3 -1031 -12 -1040 -9 -9 -123 -12 -450 -12 l-438 0 0 304 c0 261 2 305
15 310 8 3 15 17 15 31 0 14 -7 28 -15 31 -13 5 -15 93 -15 705 l0 699 450 0
450 0 0 -1028z m2346 881 c11 -14 13 -97 14 -395 l0 -378 325 0 325 0 0 -120
0 -120 -124 0 c-73 0 -127 -4 -131 -10 -4 -6 40 -10 124 -10 l131 0 0 -55 0
-55 -840 0 -840 0 -2 323 -3 322 -127 3 -128 3 0 254 0 255 631 0 c590 0 633
-1 645 -17z m4854 -728 c0 -410 -3 -745 -6 -745 -3 0 -82 -16 -175 -35 l-170
-35 -665 0 -664 0 0 55 0 55 131 0 c84 0 128 4 124 10 -4 6 -58 10 -131 10
l-124 0 0 60 0 60 131 0 c84 0 128 4 124 10 -4 6 -58 10 -131 10 l-124 0 0 55
0 55 131 0 c84 0 128 4 124 10 -4 6 -58 10 -131 10 l-124 0 0 55 0 55 131 0
c84 0 128 4 124 10 -4 6 -58 10 -131 10 l-124 0 0 55 0 55 131 0 c84 0 128 4
124 10 -4 6 -58 10 -131 10 l-124 0 0 55 0 55 131 0 c84 0 128 4 124 10 -4 6
-58 10 -130 10 l-124 0 -3 63 -3 62 -1250 0 -1250 0 -3 -62 -3 -63 -314 0
-315 0 0 365 c0 334 2 367 18 384 17 19 65 19 2410 20 l2392 1 0 -745z m-5890
-235 l0 -450 -255 0 -255 0 0 450 0 450 255 0 255 0 0 -450z m4190 -1110 l0
-1430 -1235 0 -1235 0 0 1430 0 1430 1235 0 1235 0 0 -1430z m-5060 1115 l0
-185 -40 0 -40 0 0 185 0 185 40 0 40 0 0 -185z m8860 -655 l0 -840 -450 0
-450 0 0 840 0 840 450 0 450 0 0 -840z m-6290 395 l0 -55 -124 0 c-73 0 -127
-4 -131 -10 -4 -6 40 -10 124 -10 l131 0 0 -60 0 -60 -522 -2 -523 -3 -3 -62
-3 -62 -62 -3 -62 -3 -3 -257 -2 -258 -258 -2 -257 -3 -3 -62 -3 -63 -119 0
-120 0 0 39 c0 25 5 41 15 45 8 3 15 17 15 31 0 14 -7 28 -15 31 -13 5 -15 49
-15 310 l0 304 130 0 130 0 0 135 0 135 840 0 840 0 0 -55z m-3944 -92 c10
-14 13 -85 14 -320 l0 -303 -315 0 -315 0 0 320 0 320 301 0 c276 0 303 -2
315 -17z m9314 -43 l0 -60 -124 0 c-73 0 -127 -4 -131 -10 -4 -6 40 -10 124
-10 l131 0 0 -55 0 -55 -580 0 -580 0 0 28 0 28 463 96 c425 89 471 96 580 97
l117 1 0 -60z m-5370 -135 l0 -55 -515 0 -515 0 0 55 0 55 515 0 515 0 0 -55z
m-1050 -325 l0 -250 -55 0 -55 0 0 250 0 250 55 0 55 0 0 -250z m1050 195 l0
-54 -127 -3 -128 -3 -3 -62 -3 -62 -62 -3 -62 -3 -3 -62 -3 -62 -62 -3 -62 -3
-3 -62 -3 -63 -254 0 -255 0 0 250 0 250 515 0 515 0 0 -55z m3740 0 l-54 -55
-588 0 -588 0 0 55 0 55 642 0 642 0 -54 -55z m-3740 -130 l0 -55 -120 0 -120
0 0 55 0 55 120 0 120 0 0 -55z m-5266 26 c10 -11 20 -38 23 -61 7 -48 25 -48
34 1 13 83 59 106 85 44 7 -19 14 -46 14 -61 0 -37 24 -25 31 17 8 49 27 79
50 79 32 0 49 -56 49 -160 l0 -90 200 0 200 0 0 -120 0 -120 -385 0 -385 0 0
179 c0 271 25 357 84 292z m5266 -156 l0 -55 -120 0 -120 0 0 55 0 55 120 0
120 0 0 -55z m-3930 -195 l0 -120 -315 0 -315 0 0 120 0 120 315 0 315 0 0
-120z m906 103 c9 -12 13 -51 14 -120 l0 -103 -450 0 -450 0 0 120 0 120 436
0 c404 0 438 -1 450 -17z m390 0 c7 -10 14 -39 14 -65 l0 -48 316 0 c355 0
343 3 344 -72 l0 -38 -515 0 -515 0 0 100 c0 142 -5 138 189 139 135 1 155 -1
167 -16z m2634 -15 c0 -22 -9 -43 -28 -63 l-29 -30 29 -30 c17 -18 28 -41 28
-57 l0 -28 -185 0 -185 0 0 55 0 55 65 0 65 0 0 65 0 65 120 0 120 0 0 -32z
m-1180 -153 l0 -55 -250 0 -250 0 0 55 0 55 250 0 250 0 0 -55z m130 -65 l0
-120 -315 0 -315 0 0 55 0 55 260 0 260 0 0 65 0 65 55 0 55 0 0 -120z m-2880
-65 l0 -55 -315 0 -315 0 0 55 0 55 315 0 315 0 0 -55z m920 0 l0 -55 -450 0
-450 0 0 55 0 55 450 0 450 0 0 -55z m1050 0 l0 -55 -515 0 -515 0 0 55 0 55
515 0 515 0 0 -55z m260 0 l0 -55 -120 0 -120 0 0 55 0 55 120 0 120 0 0 -55z
m1700 0 l0 -55 -185 0 -185 0 0 55 0 55 185 0 185 0 0 -55z m-1960 -590 l0
-515 -64 0 c-36 0 -68 -4 -71 -10 -4 -6 45 -10 140 -10 95 0 144 4 140 10 -3
6 -33 10 -66 10 l-59 0 0 515 0 515 120 0 120 0 0 -845 0 -845 -1826 0 -1826
0 4 148 c4 154 20 222 53 222 21 0 55 -58 55 -93 0 -41 23 -29 32 17 11 52 26
76 46 76 21 0 52 -58 52 -96 0 -38 23 -24 32 20 18 83 52 101 81 41 12 -25 17
-62 17 -125 l0 -90 995 0 995 0 0 785 0 785 515 0 515 0 0 -515z m1960 460 l0
-55 -185 0 -185 0 0 55 0 55 185 0 185 0 0 -55z m0 -130 l0 -55 -185 0 -185 0
0 55 0 55 185 0 185 0 0 -55z m0 -135 l0 -60 -185 0 -185 0 0 60 0 60 185 0
185 0 0 -60z m0 -135 l0 -55 -185 0 -185 0 0 55 0 55 185 0 185 0 0 -55z m0
-130 l0 -55 -185 0 -185 0 0 55 0 55 185 0 185 0 0 -55z m0 -130 l0 -55 -185
0 -185 0 0 55 0 55 185 0 185 0 0 -55z m-1440 -1055 l0 -980 785 0 785 0 0
-55 0 -55 -840 0 -840 0 0 1035 0 1035 55 0 55 0 0 -980z m130 65 l0 -915 720
0 720 0 0 -55 0 -55 -775 0 -775 0 0 970 0 970 55 0 55 0 0 -915z m130 65 l0
-850 655 0 655 0 0 -55 0 -55 -710 0 -710 0 0 905 0 905 55 0 55 0 0 -850z
m130 65 l0 -785 590 0 590 0 0 -55 0 -55 -645 0 -645 0 0 840 0 840 55 0 55 0
0 -785z m130 65 l0 -720 525 0 525 0 0 -55 0 -55 -580 0 -580 0 0 775 0 775
55 0 55 0 0 -720z m130 65 l0 -655 460 0 460 0 0 -55 0 -55 -515 0 -515 0 0
710 0 710 55 0 55 0 0 -655z m140 65 l0 -590 390 0 390 0 0 -55 0 -55 -450 0
-450 0 0 645 0 645 60 0 60 0 0 -590z m130 65 l0 -525 325 0 325 0 0 -55 0
-55 -380 0 -380 0 0 580 0 580 55 0 55 0 0 -525z m130 65 l0 -460 260 0 260 0
0 -55 0 -55 -315 0 -315 0 0 515 0 515 55 0 55 0 0 -460z m1050 -1035 l0 -715
-255 0 -255 0 0 715 0 715 255 0 255 0 0 -715z m2090 532 c0 -24 -5 -48 -12
-55 -9 -9 -253 -12 -1035 -12 l-1023 0 0 55 0 55 1035 0 1035 0 0 -43z m-14
-104 c17 -22 18 -65 2 -81 -9 -9 -253 -12 -1035 -12 l-1023 0 0 55 0 55 1021
0 c961 0 1023 -1 1035 -17z m0 -130 c17 -22 18 -65 2 -81 -9 -9 -253 -12
-1035 -12 l-1023 0 0 55 0 55 1021 0 c961 0 1023 -1 1035 -17z m0 -130 c17
-22 18 -65 2 -81 -9 -9 -253 -12 -1035 -12 l-1023 0 0 55 0 55 1021 0 c961 0
1023 -1 1035 -17z m0 -130 c17 -22 18 -65 2 -81 -9 -9 -253 -12 -1035 -12
l-1023 0 0 55 0 55 1021 0 c961 0 1023 -1 1035 -17z m0 -130 c17 -22 18 -65 2
-81 -9 -9 -253 -12 -1035 -12 l-1023 0 0 55 0 55 1021 0 c961 0 1023 -1 1035
-17z m0 -130 c17 -22 18 -65 2 -81 -9 -9 -253 -12 -1035 -12 l-1023 0 0 55 0
55 1021 0 c961 0 1023 -1 1035 -17z m0 -130 c17 -22 18 -65 2 -81 -9 -9 -253
-12 -1035 -12 l-1023 0 0 55 0 55 1021 0 c961 0 1023 -1 1035 -17z m0 -130
c17 -22 18 -65 2 -81 -9 -9 -253 -12 -1035 -12 l-1023 0 0 55 0 55 1021 0
c961 0 1023 -1 1035 -17z"/>
<path d="M4880 5555 l0 -65 190 0 190 0 0 65 0 65 -190 0 -190 0 0 -65z"/>
<path d="M12817 5418 c-35 -27 -37 -62 -37 -613 l0 -544 -92 -3 -93 -3 -3 -32
c-3 -31 -6 -33 -42 -33 -21 0 -42 -4 -45 -10 -4 -6 30 -10 95 -10 65 0 99 4
95 10 -3 6 -24 10 -46 10 -35 0 -39 3 -39 25 0 25 1 25 85 25 l85 0 0 -31 c0
-56 35 -98 82 -99 56 0 293 61 316 82 l22 21 0 559 0 558 -22 14 c-27 17 -284
86 -320 86 -13 0 -32 -6 -41 -12z m203 -44 c74 -20 141 -41 148 -47 9 -7 12
-131 12 -557 0 -513 -1 -548 -18 -563 -18 -16 -252 -77 -298 -77 -35 0 -64 34
-64 75 0 32 2 35 30 35 20 0 30 -5 30 -15 0 -27 38 -55 75 -55 46 0 75 29 75
75 0 46 -29 75 -75 75 -34 0 -75 -27 -75 -50 0 -5 -13 -10 -30 -10 -30 0 -30
1 -30 55 l0 55 95 0 c78 0 95 -3 95 -15 0 -27 38 -55 75 -55 22 0 43 8 55 20
12 12 20 33 20 55 0 22 -8 43 -20 55 -12 12 -33 20 -55 20 -34 0 -75 -27 -75
-50 0 -6 -38 -10 -95 -10 l-95 0 0 55 c0 54 0 55 30 55 20 0 30 -5 30 -15 0
-27 38 -55 75 -55 46 0 75 29 75 75 0 46 -29 75 -75 75 -34 0 -75 -27 -75 -50
0 -5 -13 -10 -30 -10 -30 0 -30 1 -30 55 l0 55 95 0 c78 0 95 -3 95 -15 0 -27
38 -55 75 -55 46 0 75 29 75 75 0 22 -8 43 -20 55 -12 12 -33 20 -55 20 -34 0
-75 -27 -75 -50 0 -6 -38 -10 -95 -10 l-95 0 0 55 c0 54 0 55 30 55 20 0 30
-5 30 -15 0 -27 38 -55 75 -55 46 0 75 29 75 75 0 46 -29 75 -75 75 -34 0 -75
-27 -75 -50 0 -5 -13 -10 -30 -10 -30 0 -30 1 -30 55 l0 55 95 0 c78 0 95 -3
95 -15 0 -27 38 -55 75 -55 46 0 75 29 75 75 0 46 -29 75 -75 75 -34 0 -75
-27 -75 -50 0 -6 -38 -10 -95 -10 l-95 0 0 60 0 60 30 0 c20 0 30 -5 30 -15 0
-27 38 -55 75 -55 46 0 75 29 75 75 0 46 -29 75 -75 75 -34 0 -75 -27 -75 -50
0 -5 -13 -10 -30 -10 -30 0 -30 1 -30 55 l0 55 95 0 c78 0 95 -3 95 -15 0 -27
38 -55 75 -55 46 0 75 29 75 75 0 22 -8 43 -20 55 -12 12 -33 20 -55 20 -34 0
-75 -27 -75 -50 0 -6 -38 -10 -95 -10 l-95 0 0 55 c0 54 0 55 30 55 20 0 30
-5 30 -15 0 -27 38 -55 75 -55 22 0 43 8 55 20 12 12 20 33 20 55 0 22 -8 43
-20 55 -12 12 -33 20 -55 20 -34 0 -75 -27 -75 -50 0 -5 -14 -10 -31 -10 -31
0 -31 1 -26 36 13 76 28 78 217 28z"/>
<path d="M13127 4044 c-4 -4 -7 -31 -7 -61 l0 -53 65 0 66 0 -3 58 -3 57 -55
3 c-31 2 -59 0 -63 -4z"/>
<path d="M12467 4034 c-4 -4 -7 -34 -7 -66 l0 -58 60 0 61 0 -3 63 -3 62 -50
3 c-28 2 -54 0 -58 -4z"/>
<path d="M7250 2280 l0 -30 185 0 185 0 0 30 0 30 -185 0 -185 0 0 -30z"/>
<path d="M7250 2145 l0 -35 185 0 185 0 0 35 0 35 -185 0 -185 0 0 -35z"/>
<path d="M7250 2015 l0 -35 185 0 185 0 0 35 0 35 -185 0 -185 0 0 -35z"/>
<path d="M7250 1885 l0 -35 185 0 185 0 0 35 0 35 -185 0 -185 0 0 -35z"/>
<path d="M7250 1755 l0 -35 185 0 185 0 0 35 0 35 -185 0 -185 0 0 -35z"/>
<path d="M7250 1625 l0 -35 185 0 185 0 0 35 0 35 -185 0 -185 0 0 -35z"/>
<path d="M7250 1495 l0 -35 185 0 185 0 0 35 0 35 -185 0 -185 0 0 -35z"/>
<path d="M7250 1365 l0 -35 185 0 185 0 0 35 0 35 -185 0 -185 0 0 -35z"/>
<path d="M7250 1235 l0 -35 185 0 185 0 0 35 0 35 -185 0 -185 0 0 -35z"/>
<path d="M7250 1105 l0 -35 185 0 185 0 0 35 0 35 -185 0 -185 0 0 -35z"/>
<path d="M581 5066 l-33 -34 70 -37 c44 -23 79 -50 94 -71 l23 -34 426 0 c378
0 428 -2 433 -16 4 -10 15 -14 33 -12 24 3 28 8 28 33 0 24 -5 31 -24 33 -13
2 -28 -1 -34 -7 -8 -8 -144 -11 -437 -11 l-425 1 -31 42 c-18 23 -44 66 -58
95 -15 28 -28 52 -29 52 -2 0 -18 -15 -36 -34z"/>
<path d="M594 3118 c-50 -57 -51 -53 25 -88 48 -22 78 -43 93 -66 l23 -34 426
0 c378 0 428 -2 433 -16 4 -10 15 -14 33 -12 24 3 28 8 28 33 0 24 -5 31 -24
33 -13 2 -28 -1 -34 -7 -8 -8 -144 -11 -437 -11 l-425 1 -31 42 c-18 23 -44
66 -58 95 -15 28 -28 52 -29 52 -2 0 -12 -10 -23 -22z"/>
</g>
</svg>
